<?xml version="1.0" encoding="UTF-8" standalone="no"?>
<!-- Created with Inkscape (http://www.inkscape.org/) -->

<svg
   width="214.15765mm"
   height="139.98441mm"
   viewBox="0 0 214.15765 139.98441"
   version="1.1"
   id="svg5"
   inkscape:version="1.1.2 (0a00cf5339, 2022-02-04, custom)"
   sodipodi:docname="logo.svg"
   xmlns:inkscape="http://www.inkscape.org/namespaces/inkscape"
   xmlns:sodipodi="http://sodipodi.sourceforge.net/DTD/sodipodi-0.dtd"
   xmlns="http://www.w3.org/2000/svg"
   xmlns:svg="http://www.w3.org/2000/svg">
  <sodipodi:namedview
     id="namedview7"
     pagecolor="#ffffff"
     bordercolor="#666666"
     borderopacity="1.0"
     inkscape:pageshadow="2"
     inkscape:pageopacity="0.0"
     inkscape:pagecheckerboard="0"
     inkscape:document-units="mm"
     showgrid="false"
     inkscape:zoom="0.64052329"
     inkscape:cx="603.41288"
     inkscape:cy="468.36705"
     inkscape:window-width="1920"
     inkscape:window-height="1057"
     inkscape:window-x="-8"
     inkscape:window-y="-8"
     inkscape:window-maximized="1"
     inkscape:current-layer="layer1" />
  <defs
     id="defs2" />
  <g
     inkscape:label="Layer 1"
     inkscape:groupmode="layer"
     id="layer1"
     transform="translate(54.61846,-24.188578)">
    <path
       style="fill:#fdf6e3;fill-opacity:1;stroke:#fdf6e3;stroke-width:10;stroke-miterlimit:4;stroke-dasharray:none;stroke-opacity:1"
       d="m 52.963137,158.7636 c -5.44325,-0.9152 -9.60728,-2.8931 -12.77017,-6.066 -3.56273,-3.574 -4.74487,-6.588 -4.57252,-11.658 0.0847,-2.4923 0.20347,-3.1359 0.82639,-4.4795 0.94885,-2.0465 2.17789,-3.5189 4.21645,-5.0514 3.7645,-2.8298 15.79057,-8.0739 28.45301,-12.4072 8.613489,-2.9476 12.696009,-4.6613 15.997069,-6.7149 0.5524,-0.3436 0.83624,-0.3828 1.19062,-0.1643 1.22946,0.758 3.83866,6.5702 4.82181,10.741 2.1895,9.2884 0.84321,18.2945 -3.5988,24.0744 -4.20174,5.4672 -14.774379,10.7002 -23.940489,11.8495 -2.91862,0.366 -8.06756,0.3061 -10.62337,-0.1236 z m -17.52301,-3.4292 c -2.61478,-1.7889 -6.70613,-5.5785 -9.10983,-8.438 -4.74912,-5.6496 -9.63029,-15.3071 -11.54705,-22.846 -2.35786,-9.2738 -1.00644,-15.1064 4.95417,-21.3813 3.25468,-3.4263 5.88296,-5.2311 15.04125,-10.3283 2.54662,-1.4173 5.7613,-3.2925 7.14375,-4.1669 3.72205,-2.3544 3.66873,-2.3318 4.49936,-1.9023 0.38978,0.2016 1.65024,0.9912 2.80102,1.7547 1.15078,0.7635 5.30702,3.1687 9.23608,5.3448 7.69758,4.2634 12.0567,7.0155 14.55964,9.1923 2.25356,1.9598 4.239399,4.3513 5.182139,6.2406 0.74371,1.4905 0.78309,1.6958 0.45673,2.3813 -0.48794,1.0248 -2.630729,2.1158 -7.763089,3.9525 -14.88837,5.3283 -19.19315,7.0131 -24.60625,9.6304 -4.7027,2.2738 -7.99509,4.4578 -10.21579,6.7766 -2.88112,3.0084 -3.92831,5.7841 -3.93551,10.4314 -0.004,2.8014 0.43336,4.8531 1.4804,6.9392 0.94147,1.8757 2.75915,4.5693 4.05891,6.0148 1.98666,2.2094 0.73375,2.4359 -2.23593,0.4042 z m -12.7,0.097 c -7.78702,-0.8188 -20.59642,-4.3252 -26.45833,-7.2428 -8.24379,-4.103 -18.82083,-14.1067 -24.48314,-23.1559 -4.76941,-7.6223 -8.45312,-18.9231 -8.45642,-25.9424 -10e-4,-3.0673 0.6038,-3.5876 2.59266,-2.229 1.40196,0.9577 4.40787,1.8402 8.51877,2.5011 7.52146,1.209 12.56738,3.0868 15.69663,5.8413 0.66431,0.5847 2.48991,2.7553 4.05688,4.8236 3.70983,4.8967 7.45991,8.6107 12.52566,12.4049 2.25557,1.6895 4.30286,3.2953 4.54953,3.5685 0.24666,0.2732 1.24321,2.4591 2.21455,4.8576 3.52798,8.7114 6.82165,14.1971 11.89598,19.8131 1.84431,2.0411 2.76852,3.3563 2.7702,3.942 0.001,0.4436 -1.61787,1.1213 -2.5702,1.0757 -0.40486,-0.019 -1.6886,-0.1353 -2.85277,-0.2577 z m 75.670829,-6.7184 c -0.87312,-0.1997 -2.22435,-0.3707 -3.00273,-0.38 -1.32969,-0.016 -3.04181,-0.5811 -3.37018,-1.1124 -0.0807,-0.1305 0.27479,-1.3364 0.78989,-2.6798 1.2188,-3.1786 1.91238,-5.7921 2.40366,-9.0571 0.21897,-1.4552 0.39883,-2.7855 0.39968,-2.9563 0.003,-0.5661 1.37649,-1.9565 3.94549,-3.9936 1.396104,-1.107 4.264774,-3.6875 6.374824,-5.7345 3.90183,-3.7851 4.46503,-4.1659 7.49197,-5.0656 2.14624,-0.6379 5.44716,-2.5955 7.54104,-4.4721 2.42978,-2.1776 4.341,-4.3316 8.09056,-9.1181 5.22182,-6.666 8.40045,-9.734 11.59156,-11.1881 1.47767,-0.6734 4.30427,-1.0829 6.16125,-0.8927 2.20826,0.2263 5.58882,1.13 6.82595,1.8248 1.44346,0.8107 1.24942,1.4447 -0.74615,2.4379 -2.73825,1.3628 -3.91551,2.154 -5.33304,3.5841 -2.17631,2.1955 -2.77302,3.5627 -5.62229,12.8822 -2.44005,7.981 -6.39774,14.1189 -14.03919,21.7732 -3.95695,3.9636 -6.48267,6.1034 -9.65854,8.1829 -6.54222,4.2837 -15.46574,6.9662 -19.843754,5.9652 z m -2.98238,-21.8944 c -0.14798,-0.1819 -0.69207,-1.9446 -1.20909,-3.9172 -1.2613,-4.8119 -2.49353,-8.1641 -4.51719,-12.2885 -1.95156,-3.9775 -2.59792,-4.8948 -3.44898,-4.8948 -0.79751,0 -1.10301,0.4131 -1.33203,1.8012 -0.10343,0.6269 -0.45195,1.4466 -0.7745,1.8216 -0.4884,0.5678 -0.67629,0.6337 -1.12372,0.3942 -0.64628,-0.3459 -1.49403,-1.4501 -2.87048,-3.7389 -1.56332,-2.5994 -3.843849,-5.0839 -6.422039,-6.9962 -2.6316,-1.952 -3.39677,-3.0457 -3.65239,-5.2206 -0.33582,-2.8573 1.25436,-6.7815 4.49507,-11.0927 2.949029,-3.9231 7.632509,-8.1534 15.833239,-14.301 4.11144,-3.082 8.46323,-6.4504 9.670684,-7.4851 3.78899,-3.2471 4.93559,-4.1304 5.36191,-4.1304 1.5299,0 7.17788,9.5103 9.6411,16.234 0.52546,1.4343 1.39248,4.2323 1.9267,6.2177 l 0.97131,3.6098 0.006,7.5406 0.006,7.5406 -0.85008,2.4331 c -2.40564,6.8856 -7.10761,13.8047 -14.07925,20.7179 -3.250694,3.2235 -6.616674,6.0854 -7.157194,6.0854 -0.11329,0 -0.32705,-0.1488 -0.47503,-0.3307 z m -86.446779,-6.9125 c -2.35315,-1.0377 -8.82988,-7.1362 -11.84541,-11.1536 -2.16269,-2.8812 -4.4767,-7.4451 -5.22765,-10.3104 -1.18264,-4.5124 -0.9721,-10.4384 0.59222,-16.6688 2.19221,-8.7312 5.55946,-13.5268 14.57374,-20.7562 1.27943,-1.0261 2.52959,-1.8643 2.77813,-1.8626 0.24853,0 1.78101,1.1792 3.40551,2.6168 1.62449,1.4376 4.45739,3.8264 6.29533,5.3085 1.83794,1.482 4.11184,3.415 5.0531,4.2955 3.30676,3.0933 5.38132,7.0513 6.45342,12.3122 0.68593,3.3659 0.68414,4.6397 -0.008,6.0705 -0.57984,1.1977 -0.54993,1.1756 -8.31814,6.1623 -4.74605,3.0467 -8.07648,6.6133 -10.26072,10.9884 -1.63067,3.2663 -1.84789,4.3068 -1.87714,8.9922 -0.029,4.6469 -0.0486,4.6955 -1.6139,4.0052 z m 105.072733,-5.9323 c -0.0717,-0.116 0.53494,-1.3364 1.34811,-2.712 5.67793,-9.6047 7.46093,-17.6887 5.90616,-26.7779 -1.66733,-9.7471 -5.12416,-18.6626 -10.31142,-26.5941 l -2.0945,-3.2025 2.17223,-2.0855 c 4.51517,-4.3347 9.6143,-6.9693 15.94435,-8.2381 3.87374,-0.7764 5.30606,-0.8213 5.55445,-0.174 0.0811,0.2113 -0.39468,1.5666 -1.05717,3.0119 -1.75996,3.8395 -2.29743,5.9979 -2.2978,9.2277 0,3.2024 0.4281,5.2256 1.9086,9.0122 0.60219,1.5402 1.31455,3.6423 1.58308,4.6713 1.519,5.8213 1.17253,17.1779 -0.71308,23.3726 -0.46082,1.514 -1.12133,2.8562 -2.1459,4.3609 -4.46432,6.5563 -13.63983,16.3384 -15.32517,16.3384 -0.18786,0 -0.40024,-0.095 -0.47194,-0.2109 z m -154.773173,-13.4812 c -2.29879,-4.592 -3.34109,-11.7572 -3.34569,-22.9996 -0.004,-10.4901 -0.5633,-13.5652 -4.02226,-22.126 -2.07173,-5.1275 -1.85701,-5.7123 1.27629,-3.4764 5.5862,3.9862 14.62934,12.8552 21.58634,21.1706 4.47433,5.348 5.49847,7.2246 5.49847,10.0755 0,0.6136 0.12379,1.4413 0.27508,1.8393 0.38453,1.0113 2.10617,10.5152 2.10617,11.6265 0,0.5024 -0.0893,0.9113 -0.19844,0.9087 -1.16956,-0.029 -10.82461,-2.0229 -12.89844,-2.664 -0.87312,-0.27 -2.99611,-1.3379 -4.71774,-2.3733 -1.72163,-1.0353 -3.18373,-1.829 -3.24912,-1.7636 -0.22242,0.2225 -1.42589,5.5133 -1.41647,6.2273 0.005,0.3909 0.17953,1.0084 0.3875,1.3722 0.39145,0.6848 0.51696,2.2896 0.23627,3.0211 -0.29196,0.7608 -0.88001,0.4361 -1.51796,-0.8383 z m 28.47791,-1.0716 c -0.75226,-0.4781 -1.77544,-3.6599 -2.99488,-9.3133 -0.68619,-3.1812 -1.12726,-12.1327 -0.7867,-15.9661 0.13129,-1.4779 0.5505,-3.7585 0.93158,-5.0682 2.44891,-8.4165 9.05315,-21.0522 13.31029,-25.4662 0.73683,-0.764 1.44326,-1.389 1.56985,-1.389 0.12658,0 0.50715,0.9586 0.84569,2.1302 0.33855,1.1716 1.07513,3.0289 1.63685,4.1273 0.56172,1.0984 1.02131,2.1181 1.02131,2.2661 0,0.1479 -0.40132,0.8207 -0.89181,1.4951 -1.3537,1.8611 -1.68408,2.6447 -2.66155,6.3127 -1.31763,4.9446 -1.78645,5.9899 -4.09674,9.1347 -3.34319,4.5508 -5.32519,9.08 -6.68651,15.2797 -0.55099,2.5093 -0.60998,3.4501 -0.60965,9.7234 2e-4,3.8199 -0.0599,6.9435 -0.13346,6.9413 -0.0736,0 -0.27802,-0.096 -0.45427,-0.2077 z m 75.85898,-7.0116 c -2.6983,-1.3626 -6.77928,-3.5749 -9.52499,-5.1634 -4.43129,-2.5637 -6.01128,-3.9109 -7.42702,-6.3326 -0.79162,-1.354 -1.33752,-1.1271 -3.00189,1.2482 -0.83569,1.1926 -2.08403,2.5662 -2.87473,3.1632 -1.61315,1.2179 -4.07571,2.4087 -5.13454,2.4828 -0.6151,0.043 -0.78104,-0.095 -1.05294,-0.8749 -0.17752,-0.5093 -0.32949,-2.1835 -0.3377,-3.7204 -0.0134,-2.5019 0.0444,-2.858 0.5517,-3.4026 0.87383,-0.9379 2.2353,-1.3813 4.98415,-1.6229 1.38545,-0.1218 3.29291,-0.4222 4.2388,-0.6675 2.00274,-0.5194 6.0403,-0.4118 11.11174,0.2963 8.79812,1.2285 14.81742,3.2146 14.81742,4.8892 0,0.2682 -0.52872,1.5739 -1.17494,2.9016 -1.08615,2.2317 -1.34215,3.078 -1.92168,6.3534 -0.17882,1.0106 -0.31067,1.2003 -0.87213,1.2543 -0.3638,0.035 -1.43536,-0.3271 -2.38125,-0.8047 z m 5.95313,-13.0683 c -1.16417,-0.5088 -3.33806,-1.3286 -4.83088,-1.8218 -5.24074,-1.7317 -6.01704,-2.4629 -6.01704,-5.6678 0,-1.7357 0.11956,-2.2331 0.95408,-3.9688 1.82147,-3.7884 3.11493,-5.1643 11.61363,-12.3535 2.25557,-1.908 4.69188,-4.0762 5.414009,-4.8182 1.6517,-1.6971 2.24579,-1.7398 3.12775,-0.2246 1.55558,2.6724 4.63482,12.0939 4.86419,14.8828 0.20501,2.4926 -0.20891,3.4075 -2.33272,5.1559 -0.92429,0.761 -3.66502,3.2757 -6.090529,5.5883 -2.4255,2.3126 -4.44956,4.193 -4.49791,4.1787 -0.0483,-0.014 -1.04041,-0.4423 -2.20458,-0.951 z m -36.68437,-3.0425 c -0.38557,-0.3359 -1.32751,-1.5036 -2.09319,-2.5951 -1.97343,-2.8129 -3.45901,-4.2956 -8.7034,-8.6868 -4.75104,-3.9781 -9.07774,-8.0897 -11.15558,-10.6009 l -1.18191,-1.4285 -1.90292,2.3862 c -2.14429,2.6889 -3.82039,4.3072 -4.46119,4.3072 -0.36206,0 -0.40553,-0.2037 -0.26827,-1.2568 0.48894,-3.7512 6.83907,-12.4793 12.60812,-17.3295 3.28664,-2.7632 4.98904,-3.8875 6.1785,-4.0805 l 0.96984,-0.1574 1.58653,3.3417 c 2.57224,5.4178 4.42768,7.9879 11.10416,15.3814 8.17566,9.0537 11.09213,13.345 11.11094,16.3485 0.006,1.0156 -0.72254,2.7695 -1.36344,3.2807 -0.19254,0.1536 -1.61249,0.3607 -3.15544,0.4604 -1.54296,0.1 -3.62655,0.3621 -4.63021,0.5833 -3.27067,0.7206 -3.86139,0.7265 -4.64254,0.046 z m 19.88333,-1.0402 c -2.51178,-0.4063 -2.86539,-0.6445 -3.03542,-2.0449 -0.89862,-7.4009 -2.48702,-10.0834 -11.56064,-19.5234 -3.38029,-3.5168 -3.92699,-4.3307 -3.92032,-5.8364 0.009,-2.1095 2.66897,-7.4817 5.70992,-11.5335 1.75577,-2.3394 5.72591,-6.2829 6.97643,-6.9296 0.89353,-0.462 1.0388,-0.3297 2.46319,2.2442 1.59705,2.8859 4.17115,5.7975 9.77814,11.0599 8.45156,7.9323 9.72828,9.3827 9.72828,11.0519 0,0.764 -0.30125,1.1418 -2.44739,3.07 -7.15702,6.43 -8.95891,8.9649 -9.29615,13.0779 -0.0942,1.1491 -0.24098,2.8929 -0.32615,3.8752 l -0.15485,1.7859 -1.22992,-0.031 c -0.67645,-0.017 -1.88476,-0.1368 -2.68512,-0.2663 z m 34.029249,-10.3522 c -0.99159,-2.7173 -1.19123,-5.8316 -0.53071,-8.2788 0.2341,-0.8673 0.56152,-2.2199 0.72761,-3.0057 0.55928,-2.6462 1.69535,-2.508 4.78301,0.5819 2.17314,2.1748 3.37383,3.8956 3.70144,5.3051 0.14687,0.6318 0.034,0.8803 -0.6963,1.5331 -1.73378,1.5497 -6.62396,4.9889 -7.09372,4.9889 -0.32511,0 -0.61397,-0.3645 -0.89133,-1.1245 z m 13.648664,-9.7764 c -0.506654,-0.5066 -0.37028,-1.9542 0.34396,-3.6512 0.3638,-0.8644 0.66146,-1.9821 0.66146,-2.484 0,-1.2999 0.23551,-1.7494 0.9167,-1.7494 0.68466,0 6.03515,3.135 7.01479,4.1101 l 0.65543,0.6524 -0.69644,0.6965 c -1.04113,1.0411 -1.83348,0.7014 -4.25132,-1.8226 l -2.05166,-2.1419 v 1.3333 c 0,2.3037 -0.45858,4.1232 -1.20449,4.779 -0.77621,0.6825 -0.94919,0.7171 -1.38843,0.2778 z"
       id="path981-4-8-6"
       sodipodi:nodetypes="ssssssssssssssssssssssssssscsssssscsssssssscsssssssssssssssssssssssssssssssssssssscccssssscssssssssscsssccsssscsssscssssssscsssssssssscsssssssssssssssssssssssssssssssssssssssssssssssssssscssssscsscssssssscsssssssscssssssssssssssscsscsss" />
    <path
       style="fill:#2aa198;fill-opacity:1;stroke:none;stroke-width:5;stroke-miterlimit:4;stroke-dasharray:none;stroke-opacity:1"
       d="m 52.963137,158.7636 c -5.44325,-0.9152 -9.60728,-2.8931 -12.77017,-6.066 -3.56273,-3.574 -4.74487,-6.588 -4.57252,-11.658 0.0847,-2.4923 0.20347,-3.1359 0.82639,-4.4795 0.94885,-2.0465 2.17789,-3.5189 4.21645,-5.0514 3.7645,-2.8298 15.79057,-8.0739 28.45301,-12.4072 8.613489,-2.9476 12.696009,-4.6613 15.997069,-6.7149 0.5524,-0.3436 0.83624,-0.3828 1.19062,-0.1643 1.22946,0.758 3.83866,6.5702 4.82181,10.741 2.1895,9.2884 0.84321,18.2945 -3.5988,24.0744 -4.20174,5.4672 -14.774379,10.7002 -23.940489,11.8495 -2.91862,0.366 -8.06756,0.3061 -10.62337,-0.1236 z m -17.52301,-3.4292 c -2.61478,-1.7889 -6.70613,-5.5785 -9.10983,-8.438 -4.74912,-5.6496 -9.63029,-15.3071 -11.54705,-22.846 -2.35786,-9.2738 -1.00644,-15.1064 4.95417,-21.3813 3.25468,-3.4263 5.88296,-5.2311 15.04125,-10.3283 2.54662,-1.4173 5.7613,-3.2925 7.14375,-4.1669 3.72205,-2.3544 3.66873,-2.3318 4.49936,-1.9023 0.38978,0.2016 1.65024,0.9912 2.80102,1.7547 1.15078,0.7635 5.30702,3.1687 9.23608,5.3448 7.69758,4.2634 12.0567,7.0155 14.55964,9.1923 2.25356,1.9598 4.239399,4.3513 5.182139,6.2406 0.74371,1.4905 0.78309,1.6958 0.45673,2.3813 -0.48794,1.0248 -2.630729,2.1158 -7.763089,3.9525 -14.88837,5.3283 -19.19315,7.0131 -24.60625,9.6304 -4.7027,2.2738 -7.99509,4.4578 -10.21579,6.7766 -2.88112,3.0084 -3.92831,5.7841 -3.93551,10.4314 -0.004,2.8014 0.43336,4.8531 1.4804,6.9392 0.94147,1.8757 2.75915,4.5693 4.05891,6.0148 1.98666,2.2094 0.73375,2.4359 -2.23593,0.4042 z m -12.7,0.097 c -7.78702,-0.8188 -20.596417,-4.3252 -26.458327,-7.2428 -8.24379,-4.103 -18.82083,-14.1067 -24.48314,-23.1559 -4.76941,-7.6223 -8.45312,-18.9231 -8.45642,-25.9424 -10e-4,-3.0673 0.6038,-3.5876 2.59266,-2.229 1.40196,0.9577 4.40787,1.8402 8.51877,2.5011 7.52146,1.209 12.56738,3.0868 15.69663,5.8413 0.66431,0.5847 2.48991,2.7553 4.05688,4.8236 3.70983,4.8967 7.45991,8.6107 12.525657,12.4049 2.25557,1.6895 4.30286,3.2953 4.54953,3.5685 0.24666,0.2732 1.24321,2.4591 2.21455,4.8576 3.52798,8.7114 6.82165,14.1971 11.89598,19.8131 1.84431,2.0411 2.76852,3.3563 2.7702,3.942 0.001,0.4436 -1.61787,1.1213 -2.5702,1.0757 -0.40486,-0.019 -1.6886,-0.1353 -2.85277,-0.2577 z m 75.670829,-6.7184 c -0.87312,-0.1997 -2.22435,-0.3707 -3.00273,-0.38 -1.32969,-0.016 -3.04181,-0.5811 -3.37018,-1.1124 -0.0807,-0.1305 0.27479,-1.3364 0.78989,-2.6798 1.2188,-3.1786 1.91238,-5.7921 2.40366,-9.0571 0.21897,-1.4552 0.39883,-2.7855 0.39968,-2.9563 0.003,-0.5661 1.37649,-1.9565 3.94549,-3.9936 1.396104,-1.107 4.264774,-3.6875 6.374824,-5.7345 3.90183,-3.7851 4.46503,-4.1659 7.49197,-5.0656 2.14624,-0.6379 5.44716,-2.5955 7.54104,-4.4721 2.42978,-2.1776 4.341,-4.3316 8.09056,-9.1181 5.22182,-6.666 8.40045,-9.734 11.59156,-11.1881 1.47767,-0.6734 4.30427,-1.0829 6.16125,-0.8927 2.20826,0.2263 5.58882,1.13 6.82595,1.8248 1.44346,0.8107 1.24942,1.4447 -0.74615,2.4379 -2.73825,1.3628 -3.91551,2.154 -5.33304,3.5841 -2.17631,2.1955 -2.77302,3.5627 -5.62229,12.8822 -2.44005,7.981 -6.39774,14.1189 -14.03919,21.7732 -3.95695,3.9636 -6.48267,6.1034 -9.65854,8.1829 -6.54222,4.2837 -15.46574,6.9662 -19.843754,5.9652 z m -2.98238,-21.8944 c -0.14798,-0.1819 -0.69207,-1.9446 -1.20909,-3.9172 -1.2613,-4.8119 -2.49353,-8.1641 -4.51719,-12.2885 -1.95156,-3.9775 -2.59792,-4.8948 -3.44898,-4.8948 -0.79751,0 -1.10301,0.4131 -1.33203,1.8012 -0.10343,0.6269 -0.45195,1.4466 -0.7745,1.8216 -0.4884,0.5678 -0.67629,0.6337 -1.12372,0.3942 -0.64628,-0.3459 -1.49403,-1.4501 -2.87048,-3.7389 -1.56332,-2.5994 -3.843849,-5.0839 -6.422039,-6.9962 -2.6316,-1.952 -3.39677,-3.0457 -3.65239,-5.2206 -0.33582,-2.8573 1.25436,-6.7815 4.49507,-11.0927 2.949029,-3.9231 7.632509,-8.1534 15.833239,-14.301 4.11144,-3.082 8.46323,-6.4504 9.670684,-7.4851 3.78899,-3.2471 4.93559,-4.1304 5.36191,-4.1304 1.5299,0 7.17788,9.5103 9.6411,16.234 0.52546,1.4343 1.39248,4.2323 1.9267,6.2177 l 0.97131,3.6098 0.006,7.5406 0.006,7.5406 -0.85008,2.4331 c -2.40564,6.8856 -7.10761,13.8047 -14.07925,20.7179 -3.250694,3.2235 -6.616674,6.0854 -7.157194,6.0854 -0.11329,0 -0.32705,-0.1488 -0.47503,-0.3307 z m -86.446779,-6.9125 c -2.35315,-1.0377 -8.829877,-7.1362 -11.845407,-11.1536 -2.16269,-2.8812 -4.4767,-7.4451 -5.22765,-10.3104 -1.18264,-4.5124 -0.9721,-10.4384 0.59222,-16.6688 2.19221,-8.7312 5.55946,-13.5268 14.573737,-20.7562 1.27943,-1.0261 2.52959,-1.8643 2.77813,-1.8626 0.24853,0 1.78101,1.1792 3.40551,2.6168 1.62449,1.4376 4.45739,3.8264 6.29533,5.3085 1.83794,1.482 4.11184,3.415 5.0531,4.2955 3.30676,3.0933 5.38132,7.0513 6.45342,12.3122 0.68593,3.3659 0.68414,4.6397 -0.008,6.0705 -0.57984,1.1977 -0.54993,1.1756 -8.31814,6.1623 -4.74605,3.0467 -8.07648,6.6133 -10.26072,10.9884 -1.63067,3.2663 -1.84789,4.3068 -1.87714,8.9922 -0.029,4.6469 -0.0486,4.6955 -1.6139,4.0052 z m 105.072733,-5.9323 c -0.0717,-0.116 0.53494,-1.3364 1.34811,-2.712 5.67793,-9.6047 7.46093,-17.6887 5.90616,-26.7779 -1.66733,-9.7471 -5.12416,-18.6626 -10.31142,-26.5941 l -2.0945,-3.2025 2.17223,-2.0855 c 4.51517,-4.3347 9.6143,-6.9693 15.94435,-8.2381 3.87374,-0.7764 5.30606,-0.8213 5.55445,-0.174 0.0811,0.2113 -0.39468,1.5666 -1.05717,3.0119 -1.75996,3.8395 -2.29743,5.9979 -2.2978,9.2277 0,3.2024 0.4281,5.2256 1.9086,9.0122 0.60219,1.5402 1.31455,3.6423 1.58308,4.6713 1.519,5.8213 1.17253,17.1779 -0.71308,23.3726 -0.46082,1.514 -1.12133,2.8562 -2.1459,4.3609 -4.46432,6.5563 -13.63983,16.3384 -15.32517,16.3384 -0.18786,0 -0.40024,-0.095 -0.47194,-0.2109 z m -154.77317,-13.4812 c -2.29879,-4.592 -3.34109,-11.7572 -3.34569,-22.9996 -0.004,-10.4901 -0.5633,-13.5652 -4.02226,-22.126 -2.07173,-5.1275 -1.85701,-5.7123 1.27629,-3.4764 5.5862,3.9862 14.62934,12.8552 21.58634,21.1706 4.47433,5.348 5.49847,7.2246 5.49847,10.0755 0,0.6136 0.12379,1.4413 0.27508,1.8393 0.38453,1.0113 2.10617,10.5152 2.10617,11.6265 0,0.5024 -0.0893,0.9113 -0.19844,0.9087 -1.16956,-0.029 -10.82461,-2.0229 -12.89844,-2.664 -0.87312,-0.27 -2.99611,-1.3379 -4.71774,-2.3733 -1.72163,-1.0353 -3.18373,-1.829 -3.24912,-1.7636 -0.22242,0.2225 -1.42589,5.5133 -1.41647,6.2273 0.005,0.3909 0.17953,1.0084 0.3875,1.3722 0.39145,0.6848 0.51696,2.2896 0.23627,3.0211 -0.29196,0.7608 -0.88001,0.4361 -1.51796,-0.8383 z m 28.47791,-1.0716 c -0.75226,-0.4781 -1.77544,-3.6599 -2.99488,-9.3133 -0.68619,-3.1812 -1.12726,-12.1327 -0.7867,-15.9661 0.13129,-1.4779 0.5505,-3.7585 0.93158,-5.0682 2.44891,-8.4165 9.05315,-21.0522 13.31029,-25.4662 0.73683,-0.764 1.44326,-1.389 1.56985,-1.389 0.12658,0 0.50715,0.9586 0.84569,2.1302 0.33855,1.1716 1.07513,3.0289 1.63685,4.1273 0.56172,1.0984 1.02131,2.1181 1.02131,2.2661 0,0.1479 -0.40132,0.8207 -0.89181,1.4951 -1.3537,1.8611 -1.68408,2.6447 -2.66155,6.3127 -1.31763,4.9446 -1.78645,5.9899 -4.09674,9.1347 -3.34319,4.5508 -5.32519,9.08 -6.68651,15.2797 -0.55099,2.5093 -0.60998,3.4501 -0.60965,9.7234 2e-4,3.8199 -0.0599,6.9435 -0.13346,6.9413 -0.0736,0 -0.27802,-0.096 -0.45427,-0.2077 z m 75.858977,-7.0116 c -2.6983,-1.3626 -6.77928,-3.5749 -9.52499,-5.1634 -4.43129,-2.5637 -6.01128,-3.9109 -7.42702,-6.3326 -0.79162,-1.354 -1.33752,-1.1271 -3.00189,1.2482 -0.83569,1.1926 -2.08403,2.5662 -2.87473,3.1632 -1.61315,1.2179 -4.07571,2.4087 -5.13454,2.4828 -0.6151,0.043 -0.78104,-0.095 -1.05294,-0.8749 -0.17752,-0.5093 -0.32949,-2.1835 -0.3377,-3.7204 -0.0134,-2.5019 0.0444,-2.858 0.5517,-3.4026 0.87383,-0.9379 2.2353,-1.3813 4.98415,-1.6229 1.38545,-0.1218 3.29291,-0.4222 4.2388,-0.6675 2.00274,-0.5194 6.0403,-0.4118 11.11174,0.2963 8.79812,1.2285 14.81742,3.2146 14.81742,4.8892 0,0.2682 -0.52872,1.5739 -1.17494,2.9016 -1.08615,2.2317 -1.34215,3.078 -1.92168,6.3534 -0.17882,1.0106 -0.31067,1.2003 -0.87213,1.2543 -0.3638,0.035 -1.43536,-0.3271 -2.38125,-0.8047 z m 5.95313,-13.0683 c -1.16417,-0.5088 -3.33806,-1.3286 -4.83088,-1.8218 -5.24074,-1.7317 -6.01704,-2.4629 -6.01704,-5.6678 0,-1.7357 0.11956,-2.2331 0.95408,-3.9688 1.82147,-3.7884 3.11493,-5.1643 11.61363,-12.3535 2.25557,-1.908 4.69188,-4.0762 5.414009,-4.8182 1.6517,-1.6971 2.24579,-1.7398 3.12775,-0.2246 1.55558,2.6724 4.63482,12.0939 4.86419,14.8828 0.20501,2.4926 -0.20891,3.4075 -2.33272,5.1559 -0.92429,0.761 -3.66502,3.2757 -6.090529,5.5883 -2.4255,2.3126 -4.44956,4.193 -4.49791,4.1787 -0.0483,-0.014 -1.04041,-0.4423 -2.20458,-0.951 z m -36.68437,-3.0425 c -0.38557,-0.3359 -1.32751,-1.5036 -2.09319,-2.5951 -1.97343,-2.8129 -3.45901,-4.2956 -8.7034,-8.6868 -4.75104,-3.9781 -9.07774,-8.0897 -11.15558,-10.6009 l -1.18191,-1.4285 -1.90292,2.3862 c -2.14429,2.6889 -3.82039,4.3072 -4.461187,4.3072 -0.36206,0 -0.40553,-0.2037 -0.26827,-1.2568 0.488937,-3.7512 6.839067,-12.4793 12.608117,-17.3295 3.28664,-2.7632 4.98904,-3.8875 6.1785,-4.0805 l 0.96984,-0.1574 1.58653,3.3417 c 2.57224,5.4178 4.42768,7.9879 11.10416,15.3814 8.17566,9.0537 11.09213,13.345 11.11094,16.3485 0.006,1.0156 -0.72254,2.7695 -1.36344,3.2807 -0.19254,0.1536 -1.61249,0.3607 -3.15544,0.4604 -1.54296,0.1 -3.62655,0.3621 -4.63021,0.5833 -3.27067,0.7206 -3.86139,0.7265 -4.64254,0.046 z m 19.88333,-1.0402 c -2.51178,-0.4063 -2.86539,-0.6445 -3.03542,-2.0449 -0.89862,-7.4009 -2.48702,-10.0834 -11.56064,-19.5234 -3.38029,-3.5168 -3.92699,-4.3307 -3.92032,-5.8364 0.009,-2.1095 2.66897,-7.4817 5.70992,-11.5335 1.75577,-2.3394 5.72591,-6.2829 6.97643,-6.9296 0.89353,-0.462 1.0388,-0.3297 2.46319,2.2442 1.59705,2.8859 4.17115,5.7975 9.77814,11.0599 8.45156,7.9323 9.72828,9.3827 9.72828,11.0519 0,0.764 -0.30125,1.1418 -2.44739,3.07 -7.15702,6.43 -8.95891,8.9649 -9.29615,13.0779 -0.0942,1.1491 -0.24098,2.8929 -0.32615,3.8752 l -0.15485,1.7859 -1.22992,-0.031 c -0.67645,-0.017 -1.88476,-0.1368 -2.68512,-0.2663 z m 34.029249,-10.3522 c -0.99159,-2.7173 -1.19123,-5.8316 -0.53071,-8.2788 0.2341,-0.8673 0.56152,-2.2199 0.72761,-3.0057 0.55928,-2.6462 1.69535,-2.508 4.78301,0.5819 2.17314,2.1748 3.37383,3.8956 3.70144,5.3051 0.14687,0.6318 0.034,0.8803 -0.6963,1.5331 -1.73378,1.5497 -6.62396,4.9889 -7.09372,4.9889 -0.32511,0 -0.61397,-0.3645 -0.89133,-1.1245 z m 13.648664,-9.7764 c -0.506654,-0.5066 -0.37028,-1.9542 0.34396,-3.6512 0.3638,-0.8644 0.66146,-1.9821 0.66146,-2.484 0,-1.2999 0.23551,-1.7494 0.9167,-1.7494 0.68466,0 6.03515,3.135 7.01479,4.1101 l 0.65543,0.6524 -0.69644,0.6965 c -1.04113,1.0411 -1.83348,0.7014 -4.25132,-1.8226 l -2.05166,-2.1419 v 1.3333 c 0,2.3037 -0.45858,4.1232 -1.20449,4.779 -0.77621,0.6825 -0.94919,0.7171 -1.38843,0.2778 z"
       id="path981-4-8-6-5"
       sodipodi:nodetypes="ssssssssssssssssssssssssssscsssssscsssssssscsssssssssssssssssssssssssssssssssssssscccssssscssssssssscsssccsssscsssscssssssscsssssssssscsssssssssssssssssssssssssssssssssssssssssssssssssssscssssscsscssssssscsssssssscssssssssssssssscsscsss" />
  </g>
</svg>
